/* XPM */
static char *c4e3df5966324f9cb0da88cb62bd3dbc93QFFR0WOkPuy6N5[] = {
/* columns rows colors chars-per-pixel */
"16 16 4 1 ",
"  c #59413E",
". c #514047",
"X c #77514C",
"o c #8D5D57",
/* pixels */
".XXXXXXXXXXXXX..",
"XXXXXXXXXXXXXXo.",
"XXXXXXXXXXXXXXo.",
"XXXXXXXXXXXXXXo.",
"XXXXXXXXXXXXXXo.",
"XXXXXXXXXXXXXXo.",
"XXXXXXXXXXXXXXo.",
"XXXXXXXXXXXXXXo.",
"XXXXXXXXXXXXXXo.",
"XXXXXXXXXXXXXXo.",
"XXXXXXXXXXXXXXo.",
"XXXXXXXXXXXXXXo.",
"XXXXXXXXXXXXXXo.",
"XXXXXXXXXXXXXoo.",
" ooooooooooooo .",
".             .."
};
