/* XPM */
static char *bb5c492463ac4db89053cea7f60aa43bqRvg4CXaOBFHhvG8[] = {
/* columns rows colors chars-per-pixel */
"16 16 3 1 ",
"  c #59413E",
". c #77514C",
"X c #8D5D57",
/* pixels */
"................",
"...............X",
"XXXXXXXXXXXXXXXX",
"                ",
"                ",
"................",
"................",
"....X...........",
"XXXXXXXXXXXXXXXX",
"                ",
"                ",
"...........X....",
"............X...",
"XXXXXXXXXXXXXXXX",
"                ",
"                "
};
