/* XPM */
static char *_e6b8505e4264bc3df2d0a0f3b8846ac8eM10VgpIvzp21Vx[] = {
/* columns rows colors chars-per-pixel */
"16 16 7 1 ",
"  c None",
". c #060608",
"X c #AC3232",
"o c #DF7126",
"O c #847E87",
"+ c #9BADB7",
"@ c white",
/* pixels */
"     ...        ",
"     .XX.       ",
"      .O....    ",
"     .OO++++.   ",
"    .O++++++.   ",
"    .++@@@@@.   ",
"    .++@.....   ",
"    .O+@@@.@.   ",
"    ..OOXXoX.   ",
"     .XXOOOO.   ",
"    X.OO++++.   ",
"   XX.OO...O.   ",
"   XX.O.X.O.    ",
"     ..  ..     ",
"                ",
"                "
};
